<svg xmlns="http://www.w3.org/2000/svg" width="80" height="70" viewBox="0 0 80 70">
  <defs>
    <style>
      .cls-1 {
        fill: #fff;
        fill-rule: evenodd;
      }
    </style>
  </defs>
  <path id="camera" class="cls-1" d="M7.5,10h65A7.5,7.5,0,0,1,80,17.5v45A7.5,7.5,0,0,1,72.5,70H7.5A7.5,7.5,0,0,1,0,62.5v-45A7.5,7.5,0,0,1,7.5,10Zm20-10h25C53.88,0,55,1.492,55,3.333V9.166c0,1.841-1.119,3.333-2.5,3.333h-25c-1.381,0-2.5-1.492-2.5-3.333V3.333C25,1.492,26.119,0,27.5,0ZM40,17.5A22.5,22.5,0,1,1,17.5,40,22.5,22.5,0,0,1,40,17.5ZM40,25A15,15,0,1,1,25,40,15,15,0,0,1,40,25Zm0,10a5,5,0,1,1-5,5A5,5,0,0,1,40,35ZM30,5H50V7.5H30V5Z"/>
</svg>
